<svg width="32" height="27" viewBox="0 0 32 27" fill="none" xmlns="http://www.w3.org/2000/svg">
<path fill-rule="evenodd" clip-rule="evenodd" d="M0 24.7273C0 24.3415 0.153247 23.9715 0.426027 23.6988C0.698807 23.426 1.06878 23.2727 1.45455 23.2727H30.5455C30.9312 23.2727 31.3012 23.426 31.574 23.6988C31.8468 23.9715 32 24.3415 32 24.7273C32 25.113 31.8468 25.483 31.574 25.7558C31.3012 26.0286 30.9312 26.1818 30.5455 26.1818H1.45455C1.06878 26.1818 0.698807 26.0286 0.426027 25.7558C0.153247 25.483 0 25.113 0 24.7273ZM0 13.0909C0 12.7051 0.153247 12.3352 0.426027 12.0624C0.698807 11.7896 1.06878 11.6364 1.45455 11.6364H30.5455C30.9312 11.6364 31.3012 11.7896 31.574 12.0624C31.8468 12.3352 32 12.7051 32 13.0909C32 13.4767 31.8468 13.8466 31.574 14.1194C31.3012 14.3922 30.9312 14.5455 30.5455 14.5455H1.45455C1.06878 14.5455 0.698807 14.3922 0.426027 14.1194C0.153247 13.8466 0 13.4767 0 13.0909ZM0 1.45455C0 1.06878 0.153247 0.698807 0.426027 0.426027C0.698807 0.153247 1.06878 0 1.45455 0H30.5455C30.9312 0 31.3012 0.153247 31.574 0.426027C31.8468 0.698807 32 1.06878 32 1.45455C32 1.84031 31.8468 2.21028 31.574 2.48306C31.3012 2.75584 30.9312 2.90909 30.5455 2.90909H1.45455C1.06878 2.90909 0.698807 2.75584 0.426027 2.48306C0.153247 2.21028 0 1.84031 0 1.45455Z" fill="white"/>
</svg>
