<svg width="710" height="102" viewBox="0 0 710 102" fill="none" xmlns="http://www.w3.org/2000/svg">
<path d="M31.7868 8.0388C45.1584 8.0388 55.0477 11.1727 61.4549 17.4406C67.9317 23.6389 71.1702 32.5533 71.1702 44.1837C71.1702 51.7748 69.5684 58.4258 66.3648 64.1365C63.2308 69.7776 58.6692 74.1652 52.6799 77.2991C46.6905 80.4331 39.4128 82 30.8467 82C29.802 82 28.3743 81.9652 26.5636 81.8956C24.8225 81.8259 22.977 81.7911 21.027 81.7911C19.1466 81.7215 17.4055 81.6866 15.8037 81.6866C12.9483 81.6866 10.1626 81.7215 7.4465 81.7911C4.73041 81.7911 2.50182 81.8607 0.76074 82V79.9107C3.05897 79.7714 4.76523 79.4929 5.87953 79.075C7.06346 78.6571 7.82954 77.8214 8.17776 76.5678C8.59562 75.3143 8.80455 73.4339 8.80455 70.9267V19.1121C8.80455 16.5353 8.59562 14.6549 8.17776 13.471C7.82954 12.2174 7.06346 11.3817 5.87953 10.9638C4.76523 10.4763 3.05897 10.1977 0.76074 10.1281V8.0388C2.50182 8.10844 4.73041 8.21291 7.4465 8.35219C10.1626 8.42183 12.8787 8.42183 15.5948 8.35219C18.1019 8.28255 20.9225 8.21291 24.0564 8.14326C27.1904 8.07362 29.7672 8.0388 31.7868 8.0388ZM30.8467 9.91916C27.6431 9.91916 25.5538 10.5111 24.5788 11.6951C23.6038 12.879 23.1163 15.2817 23.1163 18.9032V71.1357C23.1163 74.7571 23.6038 77.1598 24.5788 78.3438C25.6234 79.5277 27.7475 80.1197 30.9511 80.1197C37.428 80.1197 42.4771 78.7616 46.0986 76.0455C49.7897 73.2598 52.3665 69.2205 53.829 63.9276C55.3611 58.6347 56.1272 52.1927 56.1272 44.6016C56.1272 36.8015 55.2915 30.3595 53.62 25.2755C52.0182 20.1219 49.3718 16.2915 45.6807 13.7844C41.9896 11.2076 37.0449 9.91916 30.8467 9.91916Z" fill="white"/>
<path d="M91.8346 1.35304C94.3418 1.35304 96.3963 2.04947 97.9981 3.44234C99.5999 4.8352 100.401 6.68075 100.401 8.97898C100.401 11.2772 99.5999 13.1228 97.9981 14.5156C96.3963 15.9085 94.3418 16.6049 91.8346 16.6049C89.3275 16.6049 87.273 15.9085 85.6712 14.5156C84.0694 13.1228 83.2685 11.2772 83.2685 8.97898C83.2685 6.68075 84.0694 4.8352 85.6712 3.44234C87.273 2.04947 89.3275 1.35304 91.8346 1.35304ZM99.1472 26.8425V72.2848C99.1472 75.2098 99.6695 77.1946 100.714 78.2393C101.828 79.2839 103.674 79.8063 106.251 79.8063V82C104.997 81.9304 103.082 81.8607 100.505 81.7911C97.9284 81.6518 95.3168 81.5822 92.6704 81.5822C90.0936 81.5822 87.4819 81.6518 84.8355 81.7911C82.189 81.8607 80.2042 81.9304 78.881 82V79.8063C81.4578 79.8063 83.2685 79.2839 84.3132 78.2393C85.4275 77.1946 85.9846 75.2098 85.9846 72.2848V39.4828C85.9846 36.2792 85.4623 33.9461 84.4176 32.4836C83.4426 30.9515 81.5971 30.1854 78.881 30.1854V27.9916C81.1096 28.2005 83.2685 28.305 85.3578 28.305C87.9346 28.305 90.3721 28.2005 92.6704 27.9916C95.0382 27.713 97.1972 27.33 99.1472 26.8425Z" fill="white"/>
<path d="M130.969 26.5291C133.894 26.5291 136.401 26.947 138.491 27.7827C140.58 28.6184 142.112 29.3497 143.087 29.9764C145.455 31.7175 146.883 30.6032 147.37 26.6336H149.668C149.529 28.6532 149.425 31.0559 149.355 33.8417C149.285 36.5577 149.25 40.214 149.25 44.8105H146.952C146.604 42.2337 145.942 39.7265 144.967 37.289C143.992 34.8515 142.565 32.8318 140.684 31.23C138.804 29.5586 136.332 28.7229 133.267 28.7229C131.108 28.7229 129.298 29.3497 127.835 30.6032C126.442 31.8568 125.746 33.6327 125.746 35.931C125.746 38.0203 126.373 39.8658 127.626 41.4676C128.88 42.9998 130.482 44.4623 132.432 45.8551C134.451 47.1784 136.541 48.6409 138.699 50.2427C141.207 51.9141 143.435 53.6204 145.385 55.3614C147.335 57.0329 148.902 58.9133 150.086 61.0026C151.27 63.0222 151.862 65.4249 151.862 68.2106C151.862 71.4142 150.957 74.1651 149.146 76.4634C147.405 78.692 145.072 80.4331 142.147 81.6866C139.291 82.8706 136.123 83.4625 132.64 83.4625C130.76 83.4625 129.054 83.2884 127.522 82.9402C125.99 82.592 124.631 82.1393 123.448 81.5822C122.542 81.0947 121.706 80.642 120.94 80.2241C120.244 79.8063 119.513 79.458 118.747 79.1795C118.05 78.8313 117.423 78.9705 116.866 79.5973C116.379 80.2241 115.996 81.2688 115.717 82.7313H113.419C113.558 80.5027 113.663 77.7866 113.732 74.583C113.802 71.3794 113.837 67.1312 113.837 61.8383H116.135C116.623 65.6687 117.354 69.0464 118.329 71.9714C119.373 74.8268 120.871 77.0902 122.821 78.7616C124.771 80.3634 127.278 81.1643 130.342 81.1643C131.665 81.1643 132.919 80.8857 134.103 80.3286C135.357 79.7714 136.366 78.9009 137.132 77.717C137.968 76.533 138.386 74.9312 138.386 72.9116C138.386 69.8473 137.341 67.3053 135.252 65.2856C133.163 63.266 130.551 61.107 127.417 58.8088C125.049 57.0677 122.821 55.3614 120.731 53.69C118.712 52.0186 117.04 50.1382 115.717 48.0489C114.464 45.9596 113.837 43.4873 113.837 40.6319C113.837 37.4979 114.638 34.9211 116.239 32.9015C117.841 30.8122 119.931 29.2452 122.507 28.2005C125.154 27.0863 127.974 26.5291 130.969 26.5291Z" fill="white"/>
<path d="M185.503 26.5291C188.08 26.5291 190.448 26.8425 192.607 27.4693C194.835 28.0264 196.75 28.8273 198.352 29.872C200.024 30.9166 201.347 32.2399 202.322 33.8417C203.297 35.3738 203.784 37.0801 203.784 38.9604C203.784 41.2587 203.088 43.1042 201.695 44.4971C200.302 45.89 198.561 46.5864 196.472 46.5864C194.313 46.5864 192.537 45.9596 191.144 44.706C189.821 43.4524 189.159 41.781 189.159 39.6917C189.159 37.672 189.751 36.0006 190.935 34.6774C192.119 33.3542 193.547 32.4836 195.218 32.0658C194.591 31.1604 193.616 30.4291 192.293 29.872C190.97 29.2452 189.508 28.9318 187.906 28.9318C185.816 28.9318 183.936 29.4889 182.265 30.6032C180.593 31.6479 179.131 33.2497 177.877 35.4086C176.693 37.4979 175.753 40.1096 175.057 43.2435C174.43 46.3078 174.116 49.8596 174.116 53.8989C174.116 59.54 174.778 63.9972 176.101 67.2705C177.494 70.5437 179.27 72.8767 181.429 74.2696C183.588 75.5928 185.886 76.2545 188.324 76.2545C189.786 76.2545 191.353 75.9759 193.025 75.4187C194.696 74.8616 196.333 73.9214 197.934 72.5982C199.606 71.275 201.103 69.3946 202.426 66.9571L204.411 67.6883C203.645 70.1258 202.392 72.5634 200.65 75.0009C198.979 77.4384 196.785 79.458 194.069 81.0598C191.353 82.6616 188.045 83.4625 184.145 83.4625C179.688 83.4625 175.649 82.4527 172.027 80.4331C168.406 78.3438 165.515 75.2098 163.356 71.0312C161.267 66.8526 160.223 61.6642 160.223 55.4659C160.223 49.3373 161.302 44.1489 163.461 39.9006C165.62 35.5827 168.615 32.2747 172.445 29.9764C176.345 27.6782 180.698 26.5291 185.503 26.5291Z" fill="white"/>
<path d="M236.812 26.5291C241.618 26.5291 245.866 27.5041 249.557 29.4541C253.318 31.3345 256.278 34.364 258.437 38.5426C260.665 42.7212 261.78 48.223 261.78 55.0481C261.78 61.8731 260.665 67.3749 258.437 71.5535C256.278 75.7321 253.318 78.7616 249.557 80.642C245.866 82.5224 241.618 83.4625 236.812 83.4625C232.007 83.4625 227.724 82.5224 223.963 80.642C220.203 78.7616 217.243 75.7321 215.084 71.5535C212.925 67.3749 211.845 61.8731 211.845 55.0481C211.845 48.223 212.925 42.7212 215.084 38.5426C217.243 34.364 220.203 31.3345 223.963 29.4541C227.724 27.5041 232.007 26.5291 236.812 26.5291ZM236.812 28.6184C233.539 28.6184 230.858 30.7077 228.769 34.8863C226.749 38.9953 225.739 45.7158 225.739 55.0481C225.739 64.3803 226.749 71.1008 228.769 75.2098C230.858 79.3188 233.539 81.3732 236.812 81.3732C240.016 81.3732 242.663 79.3188 244.752 75.2098C246.841 71.1008 247.886 64.3803 247.886 55.0481C247.886 45.7158 246.841 38.9953 244.752 34.8863C242.663 30.7077 240.016 28.6184 236.812 28.6184Z" fill="white"/>
<path d="M306.448 6.57628C311.045 6.57628 314.805 7.27272 317.73 8.66559C320.725 9.98881 323.372 11.5558 325.67 13.3665C327.063 14.4112 328.107 14.5504 328.804 13.7844C329.57 12.9487 330.092 11.0335 330.371 8.0388H332.773C332.634 10.6852 332.53 13.9237 332.46 17.754C332.39 21.5844 332.356 26.6336 332.356 32.9015H329.953C329.535 29.7675 329.082 27.1559 328.595 25.0666C328.107 22.9077 327.411 21.0621 326.506 19.5299C325.67 17.9978 324.486 16.5353 322.954 15.1424C321.073 13.0531 318.81 11.521 316.163 10.546C313.587 9.50131 310.871 8.97898 308.015 8.97898C304.394 8.97898 301.225 9.95399 298.509 11.904C295.862 13.7844 293.634 16.396 291.823 19.7389C290.082 23.0121 288.759 26.8425 287.853 31.23C287.018 35.6176 286.6 40.2837 286.6 45.2283C286.6 50.3123 287.053 55.0481 287.958 59.4356C288.933 63.7535 290.326 67.549 292.137 70.8223C294.017 74.0259 296.315 76.533 299.031 78.3438C301.817 80.1545 305.021 81.0598 308.642 81.0598C311.219 81.0598 313.865 80.5723 316.581 79.5973C319.297 78.6223 321.526 77.125 323.267 75.1053C325.565 73.016 327.132 70.5437 327.968 67.6883C328.804 64.7633 329.465 60.8981 329.953 56.0927H332.356C332.356 62.6392 332.39 67.9321 332.46 71.9714C332.53 75.9411 332.634 79.2839 332.773 82H330.371C330.092 79.0054 329.605 77.125 328.908 76.3589C328.281 75.5928 327.202 75.6973 325.67 76.6723C323.093 78.483 320.342 80.0848 317.417 81.4777C314.562 82.8009 310.871 83.4625 306.344 83.4625C299.24 83.4625 293.007 81.9652 287.645 78.9705C282.282 75.9759 278.103 71.658 275.109 66.0169C272.184 60.3758 270.721 53.5855 270.721 45.6462C270.721 37.8461 272.253 31.0211 275.318 25.1711C278.382 19.321 282.595 14.7594 287.958 11.4861C293.32 8.2129 299.484 6.57628 306.448 6.57628Z" fill="white"/>
<path d="M361.417 0.203918V72.2848C361.417 75.2098 361.94 77.1946 362.984 78.2393C364.098 79.2839 365.944 79.8063 368.521 79.8063V82C367.267 81.9304 365.352 81.8607 362.775 81.7911C360.268 81.6518 357.691 81.5822 355.045 81.5822C352.468 81.5822 349.822 81.6518 347.106 81.7911C344.459 81.8607 342.474 81.9304 341.151 82V79.8063C343.728 79.8063 345.539 79.2839 346.583 78.2393C347.697 77.1946 348.255 75.2098 348.255 72.2848V12.7397C348.255 9.60577 347.767 7.30754 346.792 5.84503C345.817 4.31288 343.937 3.5468 341.151 3.5468V1.35304C343.38 1.56196 345.539 1.66643 347.628 1.66643C350.274 1.66643 352.747 1.56196 355.045 1.35304C357.343 1.07446 359.467 0.691424 361.417 0.203918Z" fill="white"/>
<path d="M398.917 26.5291C403.722 26.5291 407.971 27.5041 411.662 29.4541C415.422 31.3345 418.382 34.364 420.541 38.5426C422.77 42.7212 423.884 48.223 423.884 55.0481C423.884 61.8731 422.77 67.3749 420.541 71.5535C418.382 75.7321 415.422 78.7616 411.662 80.642C407.971 82.5224 403.722 83.4625 398.917 83.4625C394.112 83.4625 389.828 82.5224 386.068 80.642C382.307 78.7616 379.347 75.7321 377.188 71.5535C375.029 67.3749 373.95 61.8731 373.95 55.0481C373.95 48.223 375.029 42.7212 377.188 38.5426C379.347 34.364 382.307 31.3345 386.068 29.4541C389.828 27.5041 394.112 26.5291 398.917 26.5291ZM398.917 28.6184C395.644 28.6184 392.962 30.7077 390.873 34.8863C388.853 38.9953 387.844 45.7158 387.844 55.0481C387.844 64.3803 388.853 71.1008 390.873 75.2098C392.962 79.3188 395.644 81.3732 398.917 81.3732C402.12 81.3732 404.767 79.3188 406.856 75.2098C408.946 71.1008 409.99 64.3803 409.99 55.0481C409.99 45.7158 408.946 38.9953 406.856 34.8863C404.767 30.7077 402.12 28.6184 398.917 28.6184Z" fill="white"/>
<path d="M450.48 10.8593V28.0961H463.852V30.1854H450.48V71.7625C450.48 74.2696 450.933 76.0455 451.838 77.0902C452.744 78.1348 454.032 78.6572 455.703 78.6572C457.305 78.6572 458.768 78.0652 460.091 76.8812C461.414 75.6277 462.598 73.5732 463.643 70.7178L465.523 71.5535C464.478 74.9661 462.842 77.8214 460.613 80.1197C458.454 82.3482 455.39 83.4625 451.42 83.4625C449.053 83.4625 447.033 83.1491 445.361 82.5224C443.76 81.9652 442.367 81.1295 441.183 80.0152C439.651 78.4134 438.606 76.4982 438.049 74.2696C437.561 72.041 437.318 69.0812 437.318 65.3901V30.1854H428.125V28.0961H437.318V13.5754C439.825 13.5058 442.158 13.262 444.317 12.8442C446.476 12.4263 448.53 11.7647 450.48 10.8593Z" fill="white"/>
<path d="M486.997 0.203918V37.1845C488.738 33.2845 491.141 30.5336 494.205 28.9318C497.339 27.33 500.717 26.5291 504.338 26.5291C507.194 26.5291 509.527 26.9121 511.338 27.6782C513.148 28.4443 514.611 29.4193 515.725 30.6032C516.909 31.9265 517.745 33.6327 518.232 35.722C518.789 37.8113 519.068 40.6319 519.068 44.1837V72.2848C519.068 75.2098 519.59 77.1946 520.635 78.2393C521.749 79.2839 523.595 79.8063 526.172 79.8063V82C524.918 81.9304 523.003 81.8607 520.426 81.7911C517.849 81.6518 515.307 81.5822 512.8 81.5822C510.293 81.5822 507.821 81.6518 505.383 81.7911C502.946 81.8607 501.1 81.9304 499.846 82V79.8063C502.075 79.8063 503.642 79.2839 504.547 78.2393C505.453 77.1946 505.905 75.2098 505.905 72.2848V40.6319C505.905 38.7515 505.731 37.0801 505.383 35.6176C505.035 34.0854 504.338 32.9015 503.294 32.0658C502.319 31.1604 500.821 30.7077 498.802 30.7077C496.573 30.7077 494.554 31.3345 492.743 32.5881C491.002 33.772 489.609 35.4783 488.564 37.7069C487.52 39.8658 486.997 42.3381 486.997 45.1239V72.2848C486.997 75.2098 487.45 77.1946 488.355 78.2393C489.33 79.2839 490.897 79.8063 493.056 79.8063V82C491.872 81.9304 490.096 81.8607 487.728 81.7911C485.43 81.6518 483.028 81.5822 480.52 81.5822C478.013 81.5822 475.402 81.6518 472.686 81.7911C470.039 81.8607 468.054 81.9304 466.731 82V79.8063C469.308 79.8063 471.119 79.2839 472.163 78.2393C473.277 77.1946 473.835 75.2098 473.835 72.2848V12.7397C473.835 9.60577 473.312 7.30754 472.268 5.84503C471.293 4.31288 469.447 3.5468 466.731 3.5468V1.35304C468.96 1.56196 471.119 1.66643 473.208 1.66643C475.854 1.66643 478.327 1.56196 480.625 1.35304C482.923 1.07446 485.047 0.691424 486.997 0.203918Z" fill="white"/>
<path d="M543.258 1.35304C545.765 1.35304 547.82 2.04947 549.422 3.44234C551.023 4.8352 551.824 6.68075 551.824 8.97898C551.824 11.2772 551.023 13.1228 549.422 14.5156C547.82 15.9085 545.765 16.6049 543.258 16.6049C540.751 16.6049 538.697 15.9085 537.095 14.5156C535.493 13.1228 534.692 11.2772 534.692 8.97898C534.692 6.68075 535.493 4.8352 537.095 3.44234C538.697 2.04947 540.751 1.35304 543.258 1.35304ZM550.571 26.8425V72.2848C550.571 75.2098 551.093 77.1946 552.138 78.2393C553.252 79.2839 555.098 79.8063 557.674 79.8063V82C556.421 81.9304 554.506 81.8607 551.929 81.7911C549.352 81.6518 546.74 81.5822 544.094 81.5822C541.517 81.5822 538.905 81.6518 536.259 81.7911C533.613 81.8607 531.628 81.9304 530.304 82V79.8063C532.881 79.8063 534.692 79.2839 535.737 78.2393C536.851 77.1946 537.408 75.2098 537.408 72.2848V39.4828C537.408 36.2792 536.886 33.9461 535.841 32.4836C534.866 30.9515 533.021 30.1854 530.304 30.1854V27.9916C532.533 28.2005 534.692 28.305 536.781 28.305C539.358 28.305 541.796 28.2005 544.094 27.9916C546.462 27.713 548.621 27.33 550.571 26.8425Z" fill="white"/>
<path d="M599.943 26.5291C602.868 26.5291 605.201 26.9121 606.942 27.6782C608.753 28.4443 610.215 29.4193 611.329 30.6032C612.583 31.9265 613.453 33.6327 613.941 35.722C614.498 37.8113 614.777 40.6319 614.777 44.1837V72.2848C614.777 75.2098 615.299 77.1946 616.344 78.2393C617.458 79.2839 619.304 79.8063 621.88 79.8063V82C620.627 81.9304 618.677 81.8607 616.03 81.7911C613.453 81.6518 610.946 81.5822 608.509 81.5822C605.932 81.5822 603.425 81.6518 600.987 81.7911C598.55 81.8607 596.739 81.9304 595.555 82V79.8063C597.784 79.8063 599.351 79.2839 600.256 78.2393C601.161 77.1946 601.614 75.2098 601.614 72.2848V40.6319C601.614 38.7515 601.44 37.0801 601.092 35.6176C600.744 34.0854 600.047 32.9015 599.003 32.0658C597.958 31.1604 596.461 30.7077 594.51 30.7077C592.212 30.7077 590.158 31.3345 588.347 32.5881C586.606 33.8417 585.213 35.5827 584.168 37.8113C583.193 39.9703 582.706 42.4078 582.706 45.1239V72.2848C582.706 75.2098 583.159 77.1946 584.064 78.2393C584.969 79.2839 586.536 79.8063 588.765 79.8063V82C587.581 81.9304 585.805 81.8607 583.437 81.7911C581.069 81.6518 578.667 81.5822 576.229 81.5822C573.652 81.5822 571.041 81.6518 568.394 81.7911C565.748 81.8607 563.763 81.9304 562.44 82V79.8063C565.016 79.8063 566.827 79.2839 567.872 78.2393C568.986 77.1946 569.543 75.2098 569.543 72.2848V39.3783C569.543 36.2444 569.021 33.9461 567.976 32.4836C567.001 30.9515 565.156 30.1854 562.44 30.1854V27.9916C564.668 28.2005 566.827 28.305 568.917 28.305C571.493 28.305 573.931 28.2005 576.229 27.9916C578.597 27.713 580.756 27.33 582.706 26.8425V37.289C584.447 33.3193 586.85 30.5336 589.914 28.9318C592.978 27.33 596.321 26.5291 599.943 26.5291Z" fill="white"/>
<path d="M645.028 101.639C640.919 101.639 637.193 101.256 633.851 100.49C630.508 99.7243 627.861 98.5751 625.911 97.043C623.961 95.5805 622.986 93.7001 622.986 91.4019C622.986 89.1733 623.961 87.1885 625.911 85.4474C627.861 83.7063 630.717 82.3831 634.477 81.4777L635.209 83.1491C633.885 83.9152 632.876 84.9599 632.179 86.2831C631.483 87.6063 631.134 88.9992 631.134 90.4617C631.134 93.4564 632.493 95.7546 635.209 97.3564C637.994 99.0278 641.685 99.8635 646.282 99.8635C649.416 99.8635 652.306 99.4457 654.953 98.61C657.599 97.7742 659.723 96.4858 661.325 94.7448C662.927 93.0037 663.728 90.8447 663.728 88.2679C663.728 86.109 662.927 84.2983 661.325 82.8357C659.793 81.3732 656.694 80.642 652.027 80.642H645.133C642.556 80.642 640.188 80.3634 638.029 79.8063C635.94 79.2491 634.268 78.3438 633.015 77.0902C631.761 75.8366 631.134 74.0955 631.134 71.8669C631.134 69.1508 632.249 66.7133 634.477 64.5544C636.706 62.3258 640.188 60.1668 644.924 58.0775L646.073 59.0177C644.332 59.9231 642.765 60.8981 641.372 61.9427C640.049 62.9874 639.387 64.3106 639.387 65.9124C639.387 68.141 640.919 69.2553 643.984 69.2553H655.788C659.41 69.2553 662.613 69.708 665.399 70.6133C668.254 71.5187 670.518 72.9464 672.189 74.8964C673.861 76.8464 674.696 79.4232 674.696 82.6268C674.696 85.9697 673.617 89.0688 671.458 91.9242C669.299 94.8492 666.026 97.1823 661.638 98.9234C657.32 100.734 651.784 101.639 645.028 101.639ZM645.969 59.749C642.208 59.749 638.795 59.1918 635.731 58.0775C632.736 56.8936 630.368 55.0829 628.627 52.6454C626.886 50.1382 626.016 46.9694 626.016 43.139C626.016 39.3087 626.886 36.1747 628.627 33.7372C630.368 31.2997 632.736 29.4889 635.731 28.305C638.795 27.1211 642.208 26.5291 645.969 26.5291C649.799 26.5291 653.211 27.1211 656.206 28.305C659.201 29.4889 661.569 31.2997 663.31 33.7372C665.051 36.1747 665.921 39.3087 665.921 43.139C665.921 46.9694 665.051 50.1382 663.31 52.6454C661.569 55.0829 659.201 56.8936 656.206 58.0775C653.211 59.1918 649.799 59.749 645.969 59.749ZM645.969 57.8686C648.058 57.8686 649.694 56.824 650.878 54.7347C652.132 52.5757 652.759 48.7105 652.759 43.139C652.759 37.5676 652.132 33.7372 650.878 31.6479C649.694 29.4889 648.058 28.4095 645.969 28.4095C643.879 28.4095 642.208 29.4889 640.954 31.6479C639.77 33.7372 639.178 37.5676 639.178 43.139C639.178 48.7105 639.77 52.5757 640.954 54.7347C642.208 56.824 643.879 57.8686 645.969 57.8686ZM661.743 35.4086L659.758 34.6774C660.803 32.1006 662.509 29.9416 664.877 28.2005C667.245 26.3898 669.752 25.4845 672.398 25.4845C674.418 25.4845 675.985 26.0416 677.099 27.1559C678.283 28.2702 678.875 29.8372 678.875 31.8568C678.875 33.9461 678.318 35.4783 677.204 36.4533C676.089 37.4283 674.87 37.9158 673.547 37.9158C672.363 37.9158 671.284 37.5328 670.309 36.7667C669.334 35.931 668.777 34.6774 668.637 33.0059C668.498 31.2649 669.055 29.1059 670.309 26.5291L671.354 26.947C668.637 27.9916 666.618 29.1407 665.295 30.3943C663.971 31.6479 662.787 33.3193 661.743 35.4086Z" fill="white"/>
<path d="M699.039 24.5164C700.481 24.5164 701.824 24.79 703.068 25.3372C704.336 25.8595 705.443 26.6057 706.388 27.5757C707.358 28.5209 708.105 29.6277 708.627 30.8962C709.174 32.1398 709.448 33.4829 709.448 34.9256C709.448 36.3682 709.174 37.7237 708.627 38.9922C708.105 40.2359 707.358 41.3427 706.388 42.3127C705.443 43.2579 704.336 44.0041 703.068 44.5513C701.824 45.0736 700.481 45.3348 699.039 45.3348C697.596 45.3348 696.24 45.0736 694.972 44.5513C693.728 44.0041 692.621 43.2579 691.651 42.3127C690.706 41.3427 689.96 40.2359 689.413 38.9922C688.891 37.7237 688.629 36.3682 688.629 34.9256C688.629 33.4829 688.891 32.1398 689.413 30.8962C689.96 29.6277 690.706 28.5209 691.651 27.5757C692.621 26.6057 693.728 25.8595 694.972 25.3372C696.24 24.79 697.596 24.5164 699.039 24.5164ZM696.539 34.2167C697.384 34.2167 697.981 34.2291 698.33 34.254C698.703 34.2789 698.976 34.3162 699.15 34.3659C699.349 34.3908 699.586 34.4281 699.859 34.4779C701.128 34.5773 701.986 34.8012 702.434 35.1494C702.906 35.4976 703.205 36.0075 703.329 36.6791L703.851 39.0295C703.926 39.3031 703.988 39.5394 704.038 39.7384C704.113 39.9125 704.249 39.9996 704.448 39.9996C704.622 39.9996 704.772 39.925 704.896 39.7757L705.195 40.0742C705.02 40.3229 704.784 40.5095 704.486 40.6338C704.187 40.7582 703.802 40.8204 703.329 40.8204C702.608 40.8204 702.061 40.696 701.687 40.4473C701.314 40.1737 701.066 39.7633 700.941 39.2161L700.382 36.4925C700.282 35.9951 700.133 35.6344 699.934 35.4106C699.76 35.1618 699.424 35.0002 698.927 34.9256C698.429 34.8261 697.658 34.7763 696.613 34.7763L696.539 34.2167ZM699.039 25.7103C697.397 25.7103 695.905 26.1331 694.561 26.9788C693.243 27.7996 692.186 28.9064 691.39 30.2992C690.594 31.6921 690.196 33.2342 690.196 34.9256C690.196 36.592 690.594 38.1341 691.39 39.5519C692.186 40.9447 693.243 42.064 694.561 42.9097C695.905 43.7305 697.397 44.1409 699.039 44.1409C700.68 44.1409 702.173 43.7305 703.516 42.9097C704.859 42.064 705.916 40.9447 706.687 39.5519C707.483 38.1341 707.881 36.592 707.881 34.9256C707.881 33.2342 707.483 31.6921 706.687 30.2992C705.916 28.9064 704.859 27.7996 703.516 26.9788C702.173 26.1331 700.68 25.7103 699.039 25.7103ZM699.449 28.4711C700.991 28.4711 702.123 28.7323 702.844 29.2546C703.565 29.7521 703.926 30.4734 703.926 31.4185C703.926 31.8662 703.777 32.3264 703.478 32.799C703.205 33.2715 702.682 33.6819 701.911 34.0301C701.14 34.3784 700.033 34.5898 698.591 34.6644L696.352 34.7763C696.352 34.7763 696.352 34.6768 696.352 34.4779C696.352 34.2789 696.352 34.1794 696.352 34.1794H698.33C699.374 34.1794 700.083 33.9555 700.456 33.5078C700.854 33.0352 701.053 32.4259 701.053 31.6797C701.053 30.8091 700.879 30.15 700.531 29.7023C700.183 29.2546 699.623 29.0307 698.852 29.0307C698.379 29.0307 698.068 29.1054 697.919 29.2546C697.795 29.4038 697.733 29.7023 697.733 30.15V38.6191C697.733 39.1912 697.782 39.5519 697.882 39.7011C698.006 39.8503 698.243 39.9498 698.591 39.9996V40.5592C698.292 40.5592 697.944 40.5592 697.546 40.5592C697.173 40.5343 696.788 40.5219 696.39 40.5219C695.917 40.5219 695.469 40.5343 695.046 40.5592C694.648 40.5592 694.325 40.5592 694.076 40.5592V39.9996C694.425 39.9498 694.648 39.8503 694.748 39.7011C694.872 39.5519 694.935 39.1912 694.935 38.6191V30.4485C694.935 29.8515 694.872 29.4785 694.748 29.3292C694.648 29.1551 694.425 29.0556 694.076 29.0307V28.4711C694.325 28.496 694.648 28.5084 695.046 28.5084C695.444 28.5084 695.842 28.5084 696.24 28.5084C696.937 28.5084 697.583 28.5084 698.18 28.5084C698.777 28.4835 699.2 28.4711 699.449 28.4711Z" fill="white"/>
</svg>
